<svg width="54" height="54" viewBox="0 0 54 54" fill="none" xmlns="http://www.w3.org/2000/svg">
<g id="Group">
<path id="Vector" d="M27 54C41.9117 54 54 41.9117 54 27C54 12.0883 41.9117 0 27 0C12.0883 0 0 12.0883 0 27C0 41.9117 12.0883 54 27 54Z" fill="#76306E"/>
<path id="Vector_2" fill-rule="evenodd" clip-rule="evenodd" d="M23.4562 22.4758H20.7562V27.0371H23.4562V40.5877H28.9997V27.0371H32.7206C32.7206 27.0371 33.0682 24.8501 33.237 22.4589H29.0199V19.3404C29.0199 18.8747 29.6257 18.2486 30.2231 18.2486H33.2437V13.5H29.1364C23.3179 13.5 23.4545 18.0647 23.4545 18.7464L23.4562 22.4758Z" fill="white"/>
</g>
</svg>
