<svg width="55" height="54" viewBox="0 0 55 54" fill="none" xmlns="http://www.w3.org/2000/svg">
<g id="Group">
<path id="Vector" d="M27.25 54C42.1617 54 54.25 41.9117 54.25 27C54.25 12.0883 42.1617 0 27.25 0C12.3383 0 0.25 12.0883 0.25 27C0.25 41.9117 12.3383 54 27.25 54Z" fill="#76306E"/>
<path id="Vector_2" fill-rule="evenodd" clip-rule="evenodd" d="M40.3247 40.073H34.8184V31.4566C34.8184 29.4029 34.783 26.7586 31.9564 26.7586C29.091 26.7586 28.654 28.9979 28.654 31.3098V40.073H23.1527V22.3543H28.4329V24.7775H28.5088C29.2429 23.3853 31.0401 21.9155 33.7181 21.9155C39.2936 21.9155 40.3247 25.5841 40.3247 30.3564V40.073ZM16.9461 19.9344C16.5208 19.9446 16.0977 19.8697 15.7017 19.7141C15.3057 19.5585 14.9448 19.3253 14.6403 19.0283C14.3357 18.7313 14.0935 18.3763 13.928 17.9844C13.7626 17.5924 13.6771 17.1714 13.6766 16.7459C13.6762 16.3205 13.7608 15.8992 13.9254 15.5069C14.0901 15.1146 14.3315 14.7592 14.6354 14.4615C14.9394 14.1638 15.2998 13.9299 15.6954 13.7735C16.0911 13.617 16.514 13.5413 16.9393 13.5506C17.7732 13.5688 18.5668 13.9127 19.1504 14.5086C19.734 15.1045 20.0613 15.9051 20.0621 16.7392C20.063 17.5733 19.7375 18.3746 19.1551 18.9717C18.5728 19.5688 17.7799 19.9143 16.9461 19.9344ZM14.1887 40.073H19.7001V22.3543H14.1887V40.073Z" fill="white"/>
</g>
</svg>
