<svg width="55" height="54" viewBox="0 0 55 54" fill="none" xmlns="http://www.w3.org/2000/svg">
<g id="Group">
<path id="Vector" d="M27.875 54C42.7867 54 54.875 41.9117 54.875 27C54.875 12.0883 42.7867 0 27.875 0C12.9633 0 0.875 12.0883 0.875 27C0.875 41.9117 12.9633 54 27.875 54Z" fill="#76306E"/>
<path id="Vector_2" fill-rule="evenodd" clip-rule="evenodd" d="M43.0625 17.5972C41.9255 18.1001 40.7197 18.43 39.485 18.5759C40.7844 17.7991 41.7576 16.5771 42.2238 15.1368C40.9986 15.8608 39.6594 16.3715 38.2633 16.6471C37.6804 16.0252 36.9759 15.5298 36.1936 15.1916C35.4113 14.8534 34.5677 14.6797 33.7154 14.6812C32.7774 14.6804 31.8513 14.8916 31.0063 15.299C30.1613 15.7064 29.4193 16.2994 28.8356 17.0338C28.252 17.7682 27.8418 18.6249 27.6357 19.5401C27.4296 20.4552 27.433 21.4051 27.6455 22.3188C25.1691 22.1952 22.7463 21.5527 20.534 20.4329C18.3218 19.3131 16.3695 17.7411 14.8036 15.8185C14.0063 17.1878 13.7619 18.8099 14.1204 20.3533C14.4789 21.8968 15.4132 23.245 16.7324 24.1227C15.7428 24.0906 14.7751 23.8233 13.9093 23.3431V23.4207C13.9109 24.8581 14.4094 26.2506 15.3203 27.3624C16.2313 28.4742 17.4987 29.2368 18.9076 29.521C18.3845 29.6611 17.8344 29.7404 17.2657 29.7404C16.8718 29.7397 16.479 29.7001 16.0929 29.6223C16.4912 30.8593 17.2662 31.9408 18.3095 32.7157C19.3527 33.4905 20.6121 33.92 21.9114 33.944C19.7031 35.6723 16.9784 36.6089 14.1742 36.6035C13.6774 36.6032 13.1811 36.575 12.6875 36.5191C15.5365 38.3495 18.8524 39.3209 22.2387 39.317C33.7019 39.317 39.9659 29.8383 39.9659 21.6151L39.9457 20.8102C41.1705 19.9365 42.2265 18.8479 43.0625 17.5972Z" fill="white"/>
</g>
</svg>
