<svg width="55" height="54" viewBox="0 0 55 54" fill="none" xmlns="http://www.w3.org/2000/svg">
<g id="Group">
<path id="Vector" d="M27.625 54C42.5367 54 54.625 41.9117 54.625 27C54.625 12.0883 42.5367 0 27.625 0C12.7133 0 0.625 12.0883 0.625 27C0.625 41.9117 12.7133 54 27.625 54Z" fill="#76306E"/>
<path id="Vector_2" fill-rule="evenodd" clip-rule="evenodd" d="M37.9407 13.5H17.4038C15.6353 13.5 14.125 15.1622 14.125 16.9256V37.476C14.125 39.2378 15.6353 40.4966 17.4038 40.4966H37.9407C39.7092 40.4966 41.125 39.2378 41.125 37.476V16.9256C41.125 15.1622 39.7092 13.5 37.9407 13.5ZM37.3062 17.3559C37.552 17.3564 37.7877 17.4544 37.9614 17.6284C38.1351 17.8024 38.2326 18.0382 38.2326 18.2841V21.2507C38.2326 21.3726 38.2086 21.4933 38.162 21.6059C38.1153 21.7185 38.047 21.8208 37.9608 21.907C37.8746 21.9932 37.7723 22.0615 37.6597 22.1082C37.5471 22.1548 37.4264 22.1788 37.3045 22.1788H34.3379C34.216 22.1788 34.0953 22.1548 33.9827 22.1082C33.8701 22.0615 33.7678 21.9932 33.6816 21.907C33.5954 21.8208 33.527 21.7185 33.4804 21.6059C33.4338 21.4933 33.4097 21.3726 33.4097 21.2507V18.2841C33.4097 18.0379 33.5075 17.8018 33.6816 17.6278C33.8556 17.4537 34.0917 17.3559 34.3379 17.3559H37.3062ZM27.7043 22.0641C29.0764 22.0627 30.3928 22.6062 31.3643 23.5752C32.3357 24.5441 32.8827 25.8591 32.8849 27.2312C32.8832 28.6035 32.3364 29.919 31.3649 30.8883C30.3934 31.8576 29.0767 32.4013 27.7043 32.4C26.332 32.4013 25.0153 31.8576 24.0438 30.8883C23.0722 29.919 22.5255 28.6035 22.5237 27.2312C22.5259 25.8591 23.0729 24.5441 24.0443 23.5752C25.0158 22.6062 26.3323 22.0627 27.7043 22.0641ZM38.2326 36.7858C38.2326 37.2009 37.7922 37.6042 37.3754 37.6042H18.0332C17.6164 37.6042 17.0174 37.1992 17.0174 36.7858V25.0695H19.8001C19.6111 26.0347 19.5081 26.4836 19.5081 27.2312C19.5081 31.7402 23.1852 35.4071 27.7043 35.4071C32.2234 35.4071 35.9005 31.7385 35.9005 27.2312C35.9005 26.4836 35.7976 26.0331 35.6086 25.0712H38.2326V36.7858Z" fill="white"/>
</g>
</svg>
