<svg xmlns="http://www.w3.org/2000/svg" xmlns:xlink="http://www.w3.org/1999/xlink" width="28" height="28" viewBox="0 0 28 28">
    <defs>
        <linearGradient id="wmeg5m5w7b" x1="28.212%" x2="67.981%" y1="0%" y2="100%">
            <stop offset="0%" stop-color="#B83DFF"/>
            <stop offset="100%" stop-color="#821DFF"/>
        </linearGradient>
        <linearGradient id="wq7z4l0n4d" x1="9.944%" x2="83.058%" y1="47.046%" y2="52.954%">
            <stop offset="0%" stop-color="#B83DFF"/>
            <stop offset="100%" stop-color="#821DFF"/>
        </linearGradient>
        <path id="kxgt50ehka" d="M20.518 7.727v14.11c0 .927-.743 1.678-1.659 1.678s-3.059-.75-3.059-1.677v-1.554c0-.318-.255-.575-.57-.575H8.19V7.754c0-.94.754-1.702 1.684-1.703H21.07c-.357.484-.55 1.072-.55 1.676z"/>
        <path id="dlfs1ha3wc" d="M6.333 22.814c-.855-.002-1.549-.751-1.55-1.676v-.978h10.409v.978c0 .603.179 1.19.51 1.676H6.334z"/>
    </defs>
    <g fill="none" fill-rule="evenodd">
        <path fill="#FFF" d="M19.584 7.027v14.11c0 .927-.746 1.678-1.665 1.678-.92 0-1.665-.75-1.665-1.677v-1.554c0-.318-.256-.575-.572-.575H7.21V7.054c.001-.94.758-1.702 1.692-1.703h11.236c-.358.484-.552 1.072-.553 1.676z"/>
        <use fill="#FFF" xlink:href="#kxgt50ehka"/>
        <use fill="url(#wmeg5m5w7b)" fill-opacity=".8" xlink:href="#kxgt50ehka"/>
        <path fill="#821DFF" fill-rule="nonzero" d="M22.393 4.2H8.907c-1.564.001-2.833 1.279-2.834 2.854V19.01H3.371c-.315 0-.571.257-.571.575v1.554c.003 1.56 1.258 2.824 2.807 2.827H17.92c1.55-.003 2.804-1.267 2.807-2.827V9.156h3.902c.315 0 .571-.258.571-.575V7.027c-.003-1.56-1.258-2.824-2.807-2.827zm-2.809 2.827v14.11c0 .927-.746 1.678-1.665 1.678-.92 0-1.665-.75-1.665-1.677v-1.554c0-.318-.256-.575-.572-.575H7.21V7.054c.001-.94.758-1.702 1.692-1.703h11.236c-.358.484-.552 1.072-.553 1.676z"/>
        <path fill="#FFF" fill-rule="nonzero" d="M5.607 22.814c-.919-.002-1.663-.751-1.664-1.676v-.978h11.17v.978c0 .603.192 1.19.549 1.676H5.607z"/>
        <use fill="#FFF" xlink:href="#dlfs1ha3wc"/>
        <use fill="url(#wq7z4l0n4d)" fill-opacity=".8" xlink:href="#dlfs1ha3wc"/>
        <path fill="#973DFE" fill-rule="nonzero" d="M24.057 8.005h-3.33v-.978c0-.926.745-1.677 1.665-1.677s1.665.75 1.665 1.677v.978z"/>
        <g fill="#FFF" fill-rule="nonzero">
            <path d="M.059 1.063C.118.96.216.884.332.853.447.82.57.836.675.895c.214.12.41.27.582.444.405-.48.874-.904 1.393-1.26.206-.14.487-.09.63.113.142.202.09.48-.114.62-.603.409-1.127.92-1.548 1.51-.08.12-.215.193-.361.198h-.02c-.155-.006-.295-.09-.372-.223-.152-.26-.371-.476-.635-.626C.126 1.613.05 1.516.017 1.4c-.033-.113-.018-.235.042-.338zM.059 4.563c.059-.103.157-.179.273-.21.115-.032.239-.017.343.042.214.12.41.27.582.444.405-.48.874-.904 1.393-1.26.206-.14.487-.09.63.113.142.202.09.48-.114.62-.603.409-1.127.92-1.548 1.51-.08.12-.215.193-.361.198h-.02c-.155-.006-.295-.09-.372-.223-.152-.26-.371-.476-.635-.626C.126 5.113.05 5.016.017 4.9c-.033-.113-.018-.235.042-.338zM.059 8.063c.059-.103.157-.179.273-.21.115-.032.239-.017.343.042.214.12.41.27.582.444.405-.48.874-.904 1.393-1.26.206-.14.487-.09.63.113.142.202.09.48-.114.62-.603.409-1.127.92-1.548 1.51-.08.12-.215.193-.361.198h-.02c-.155-.006-.295-.09-.372-.223-.152-.26-.371-.476-.635-.626C.126 8.613.05 8.516.017 8.4c-.033-.113-.018-.235.042-.338zM8.54 1.278c0 .317-.205.575-.459.575H5.5c-.254 0-.459-.258-.459-.575 0-.318.205-.576.459-.576H8.08c.254 0 .459.258.459.576zM8.54 4.778c0 .317-.205.575-.459.575H5.5c-.254 0-.459-.258-.459-.575 0-.318.205-.576.459-.576H8.08c.254 0 .459.258.459.576zM8.54 8.278c0 .317-.205.575-.459.575H5.5c-.254 0-.459-.258-.459-.575 0-.318.205-.576.459-.576H8.08c.254 0 .459.258.459.576z" transform="translate(9.52 7.7)"/>
        </g>
    </g>
</svg>
